<?xml version="1.0" encoding="utf-8"?>
<!-- Generator: Adobe Illustrator 25.2.3, SVG Export Plug-In . SVG Version: 6.00 Build 0)  -->
<svg version="1.1" id="Layer_1" xmlns="http://www.w3.org/2000/svg" xmlns:xlink="http://www.w3.org/1999/xlink" x="0px" y="0px"
	 viewBox="0 0 24 24" style="enable-background:new 0 0 24 24;" xml:space="preserve">
<style type="text/css">
	.st0{fill:none;stroke:#000000;stroke-width:1.1797;stroke-linecap:round;stroke-linejoin:round;stroke-miterlimit:10;}
</style>
<g>
	<g>
		<path d="M10.8,19.3c-1.2-0.2-2.2-0.5-3.3-1.2c1.3,0.7,2.9,1.2,4.4,1.2c5.1,0,9.3-4.1,9.3-9.3S17.1,0.7,12,0.7
			c-2.7,0-5.3,1.2-7,3.2C5.3,3.6,5.6,3.2,6,2.9c1.8-1.5,3.9-2.2,6.1-2.2c0.4,0,1,0,1.4,0.1c2.4,0.4,4.7,1.7,6.1,3.7
			c1.5,2,2.1,4.5,1.7,7l-1.3,9.3L10.8,19.3z"/>
		<path d="M20.3,15.4l-0.7,4.7l-4.3-0.6c0.2-0.1,0.4-0.1,0.6-0.2c1.2-0.5,2.2-1.2,3.2-2.1C19.5,16.6,19.9,16,20.3,15.4 M12.2,0
			C7.3,0,3,3.6,2.2,8.6l0,0C1.4,14,5.2,19.1,10.6,20l9.3,1.4H20c0.3,0,0.5-0.2,0.5-0.5l1.4-9.3c0.8-5.4-3-10.6-8.4-11.4l0,0
			C13.2,0.1,12.7,0,12.2,0L12.2,0z M12.1,18.7c-4.8,0-8.7-3.9-8.7-8.7s3.9-8.7,8.7-8.7s8.7,3.9,8.7,8.7S16.8,18.7,12.1,18.7
			L12.1,18.7z"/>
	</g>
	<g>
		<path d="M2.7,11.2C2.2,8.8,2.8,6.4,4.3,4.4s3.5-3.3,5.8-3.7c0.5-0.1,1.1-0.1,1.6-0.1c1.1,0,2.1,0.2,3.1,0.5
			c-0.8-0.2-1.8-0.4-2.6-0.4C6.9,0.7,2.8,5,2.8,10s4.1,9.3,9.3,9.3s9.3-4.1,9.3-9.3c0-1.8-0.5-3.5-1.4-4.9c0.7,1.2,1.2,2.3,1.5,3.7
			c0.4,2.3-0.1,4.8-1.6,6.7c-1.5,1.9-3.5,3.3-5.8,3.7l-9.7,1.7L2.7,11.2z"/>
		<path d="M4,16c0.3,0.4,0.6,0.7,1,1.2c1,1,2,1.6,3.2,2.1c0.3,0.1,0.5,0.2,0.8,0.3l-4.2,0.7L4,16 M11.7,0.1c-0.5,0-1.2,0-1.7,0.1
			l0,0C4.8,1.2,1.2,6.1,2,11.3L3.7,21c0,0.3,0.3,0.5,0.5,0.5h0.1l9.7-1.7c5.2-0.8,8.7-5.8,7.8-11l0,0C21.1,3.7,16.6,0.1,11.7,0.1
			L11.7,0.1z M12.1,18.7c-4.8,0-8.7-3.9-8.7-8.7s3.9-8.7,8.7-8.7s8.7,3.9,8.7,8.7S16.8,18.7,12.1,18.7L12.1,18.7z"/>
	</g>
	<g>
		<path d="M5.4,16.7c-1.8-1.8-2.7-4.1-2.7-6.7s1-4.9,2.7-6.7s4.2-2.7,6.7-2.7s4.9,1,6.7,2.7c1.8,1.8,2.7,4.1,2.7,6.7s-1,4.9-2.7,6.7
			l-6.7,6.7L5.4,16.7z M12.1,0.7C6.9,0.7,2.8,5,2.8,10s4.1,9.3,9.3,9.3s9.3-4.1,9.3-9.3S17.1,0.7,12.1,0.7z"/>
		<path d="M15.2,19.5l-3.1,3.1l-3.1-3c1,0.3,1.9,0.4,2.9,0.4C13.1,20,14.2,19.8,15.2,19.5 M12.1,0C9.5,0,7,1.1,5,3l0,0
			C1.1,6.9,1.1,13.2,5,17.1l6.7,6.7c0.1,0.1,0.2,0.2,0.4,0.2c0.1,0,0.3-0.1,0.4-0.2l6.7-6.7c3.9-3.9,3.9-10.3,0-14.2l0,0
			C17.3,1.1,14.7,0,12.1,0L12.1,0z M12.1,18.7c-4.8,0-8.7-3.9-8.7-8.7s3.9-8.7,8.7-8.7s8.7,3.9,8.7,8.7S16.8,18.7,12.1,18.7
			L12.1,18.7z"/>
	</g>
	<g>
		<path d="M7.7,17.9c1.3,0.7,2.6,1.3,4.2,1.3c1.8,0,3.5-0.6,4.8-1.6l-4.7,4.7L7.7,17.9z"/>
		<path d="M14,19.6l-1.9,1.9l-1.8-1.8c0.5,0.1,1.2,0.2,1.7,0.2C12.6,19.8,13.3,19.7,14,19.6 M12.1,3.1c-2.1,0-4.2,0.8-5.8,2.4l0,0
			c-3.2,3.2-3.2,8.5,0,11.7l5.5,5.5c0.1,0.1,0.2,0.1,0.3,0.1s0.2,0,0.3-0.1l5.5-5.5c3.2-3.2,3.2-8.5,0-11.7l0,0
			C16.3,3.9,14.2,3.1,12.1,3.1L12.1,3.1z M12,18.6c-4,0-7.2-3.2-7.2-7.2S8,4.2,12,4.2s7.2,3.2,7.2,7.2S16,18.6,12,18.6L12,18.6z"/>
	</g>
	<g>
		<line class="st0" x1="6" y1="11.4" x2="17.9" y2="11.4"/>
	</g>
	<g>
		<line class="st0" x1="7.7" y1="15" x2="16.2" y2="15"/>
	</g>
	<g>
		<line class="st0" x1="7.7" y1="7.8" x2="16.2" y2="7.8"/>
	</g>
</g>
</svg>
